<?xml version="1.0" encoding="utf-8"?>
<!-- Generator: Adobe Illustrator 23.1.1, SVG Export Plug-In . SVG Version: 6.00 Build 0)  -->
<svg version="1.1" id="Layer_1" xmlns="http://www.w3.org/2000/svg" xmlns:xlink="http://www.w3.org/1999/xlink" x="0px" y="0px"
	 viewBox="0 0 700 500" style="enable-background:new 0 0 700 500;" xml:space="preserve">
<style type="text/css">
	.st0{opacity:0.75;fill:#715633;stroke:#1E1E1E;stroke-width:0.5;stroke-miterlimit:10;enable-background:new    ;}
	.st1{opacity:0.75;fill:#7133CC;stroke:#1E1E1E;stroke-width:0.5;stroke-miterlimit:10;enable-background:new    ;}
	.st2{opacity:0.75;fill:#DCCCF2;stroke:#1E1E1E;stroke-width:0.5;stroke-miterlimit:10;enable-background:new    ;}
	.st3{opacity:0.75;fill:#F0A2A3;stroke:#1E1E1E;stroke-width:0.5;stroke-miterlimit:10;enable-background:new    ;}
	.st4{opacity:0.75;fill:#F0D7A6;stroke:#1E1E1E;stroke-width:0.5;stroke-miterlimit:10;enable-background:new    ;}
	.st5{opacity:0.75;fill:#E5F7D2;stroke:#1E1E1E;stroke-width:0.5;stroke-miterlimit:10;enable-background:new    ;}
	.st6{opacity:0.75;fill:#E87375;stroke:#1E1E1E;stroke-width:0.5;stroke-miterlimit:10;enable-background:new    ;}
	.st7{opacity:0.75;fill:#16BED9;stroke:#1E1E1E;stroke-width:0.5;stroke-miterlimit:10;enable-background:new    ;}
	.st8{opacity:0.75;fill:#E8C379;stroke:#1E1E1E;stroke-width:0.5;stroke-miterlimit:10;enable-background:new    ;}
	.st9{opacity:0.75;fill:#9566D9;stroke:#1E1E1E;stroke-width:0.5;stroke-miterlimit:10;enable-background:new    ;}
	.st10{opacity:0.75;fill:#CCF0A6;stroke:#1E1E1E;stroke-width:0.5;stroke-miterlimit:10;enable-background:new    ;}
	.st11{opacity:0.75;fill:#A2E5F0;stroke:#1E1E1E;stroke-width:0.5;stroke-miterlimit:10;enable-background:new    ;}
</style>
<g id="Nova_Scotia">
	<polygon class="st0" points="696.4,370.1 669.7,370.1 656.3,393.2 669.7,416.4 696.4,416.4 709.7,393.2 	"/>
	<polygon class="st0" points="696.4,324 669.7,324 656.3,347 669.7,370.1 696.4,370.1 709.7,347 	"/>
</g>
<g id="New_Brunswick">
	<polygon class="st1" points="656.4,393.2 629.7,393.2 616.3,416.4 629.7,439.5 656.4,439.5 669.7,416.4 	"/>
	<polygon class="st1" points="656.4,347 629.7,347 616.3,370.1 629.7,393.2 656.4,393.2 669.7,370.1 	"/>
	<polygon class="st1" points="656.4,300.9 629.7,300.9 616.3,324 629.7,347 656.4,347 669.7,324 	"/>
</g>
<g id="Newfoundland_and_Labrador">
	<polygon class="st2" points="696.4,277.8 669.7,277.8 656.3,300.9 669.7,324 696.4,324 709.7,300.9 	"/>
	<polygon class="st2" points="696.4,231.6 669.7,231.6 656.3,254.6 669.7,277.8 696.4,277.8 709.7,254.6 	"/>
	<polygon class="st2" points="656.4,254.6 629.7,254.6 616.3,277.8 629.7,300.9 656.4,300.9 669.7,277.8 	"/>
	<polygon class="st2" points="616.5,277.8 589.8,277.8 576.4,300.9 589.8,324 616.5,324 629.8,300.9 	"/>
	<polygon class="st2" points="616.5,231.6 589.8,231.6 576.4,254.6 589.8,277.8 616.5,277.8 629.8,254.6 	"/>
	<polygon class="st2" points="576.5,208.4 549.8,208.4 536.4,231.6 549.8,254.6 576.5,254.6 589.8,231.6 	"/>
</g>
<g id="Quebec">
	<polygon class="st3" points="616.5,416.4 589.8,416.4 576.4,439.5 589.8,462.5 616.5,462.5 629.8,439.5 	"/>
	<polygon class="st3" points="616.5,370.1 589.8,370.1 576.4,393.2 589.8,416.4 616.5,416.4 629.8,393.2 	"/>
	<polygon class="st3" points="616.5,324 589.8,324 576.4,347 589.8,370.1 616.5,370.1 629.8,347 	"/>
	<polygon class="st3" points="576.5,439.5 549.8,439.5 536.4,462.5 549.8,485.6 576.5,485.6 589.8,462.5 	"/>
	<polygon class="st3" points="576.5,393.2 549.8,393.2 536.4,416.4 549.8,439.5 576.5,439.5 589.8,416.4 	"/>
	<polygon class="st3" points="576.5,347 549.8,347 536.4,370.1 549.8,393.2 576.5,393.2 589.8,370.1 	"/>
	<polygon class="st3" points="576.5,300.9 549.8,300.9 536.4,324 549.8,347 576.5,347 589.8,324 	"/>
	<polygon class="st3" points="576.5,254.6 549.8,254.6 536.4,277.8 549.8,300.9 576.5,300.9 589.8,277.8 	"/>
	<polygon class="st3" points="536.5,416.4 509.8,416.4 496.4,439.5 509.8,462.5 536.5,462.5 549.8,439.5 	"/>
	<polygon class="st3" points="536.5,370.1 509.8,370.1 496.4,393.2 509.8,416.4 536.5,416.4 549.8,393.2 	"/>
	<polygon class="st3" points="536.5,324 509.8,324 496.4,347 509.8,370.1 536.5,370.1 549.8,347 	"/>
	<polygon class="st3" points="536.5,277.8 509.8,277.8 496.4,300.9 509.8,324 536.5,324 549.8,300.9 	"/>
	<polygon class="st3" points="536.5,231.6 509.8,231.6 496.4,254.6 509.8,277.8 536.5,277.8 549.8,254.6 	"/>
	<polygon class="st3" points="536.5,185.3 509.8,185.3 496.4,208.4 509.8,231.6 536.5,231.6 549.8,208.4 	"/>
	<polygon class="st3" points="496.6,347 469.9,347 456.5,370.1 469.9,393.2 496.6,393.2 509.9,370.1 	"/>
	<polygon class="st3" points="496.6,300.9 469.9,300.9 456.5,324 469.9,347 496.6,347 509.9,324 	"/>
	<polygon class="st3" points="496.6,254.6 469.9,254.6 456.5,277.8 469.9,300.9 496.6,300.9 509.9,277.8 	"/>
	<polygon class="st3" points="496.6,208.4 469.9,208.4 456.5,231.6 469.9,254.6 496.6,254.6 509.9,231.6 	"/>
	<polygon class="st3" points="496.6,162.2 469.9,162.2 456.5,185.3 469.9,208.4 496.6,208.4 509.9,185.3 	"/>
	<polygon class="st3" points="456.6,185.3 429.9,185.3 416.5,208.4 429.9,231.6 456.6,231.6 469.9,208.4 	"/>
</g>
<g id="Ontario">
	<polygon class="st4" points="536.5,462.5 509.8,462.5 496.4,485.6 509.8,508.8 536.5,508.8 549.8,485.6 	"/>
	<polygon class="st4" points="496.6,439.5 469.9,439.5 456.5,462.5 469.9,485.6 496.6,485.6 509.9,462.5 	"/>
	<polygon class="st4" points="496.6,393.2 469.9,393.2 456.5,416.4 469.9,439.5 496.6,439.5 509.9,416.4 	"/>
	<polygon class="st4" points="456.6,416.4 429.9,416.4 416.5,439.5 429.9,462.5 456.6,462.5 469.9,439.5 	"/>
	<polygon class="st4" points="456.6,370.1 429.9,370.1 416.5,393.2 429.9,416.4 456.6,416.4 469.9,393.2 	"/>
	<polygon class="st4" points="456.6,324 429.9,324 416.5,347 429.9,370.1 456.6,370.1 469.9,347 	"/>
	<polygon class="st4" points="416.7,439.5 390,439.5 376.6,462.5 390,485.6 416.7,485.6 430,462.5 	"/>
	<polygon class="st4" points="416.7,393.2 390,393.2 376.6,416.4 390,439.5 416.7,439.5 430,416.4 	"/>
	<polygon class="st4" points="416.7,347 390,347 376.6,370.1 390,393.2 416.7,393.2 430,370.1 	"/>
	<polygon class="st4" points="416.7,300.9 390,300.9 376.6,324 390,347 416.7,347 430,324 	"/>
	<polygon class="st4" points="376.7,416.4 350,416.4 336.6,439.5 350,462.5 376.7,462.5 390,439.5 	"/>
	<polygon class="st4" points="376.7,370.1 350,370.1 336.6,393.2 350,416.4 376.7,416.4 390,393.2 	"/>
	<polygon class="st4" points="376.7,324 350,324 336.6,347 350,370.1 376.7,370.1 390,347 	"/>
</g>
<g id="Manitoba">
	<polygon class="st5" points="336.7,393.2 310,393.2 296.6,416.4 310,439.5 336.7,439.5 350,416.4 	"/>
	<g>
		<polygon class="st5" points="376.7,277.8 350,277.8 336.6,300.9 350,324 376.7,324 390,300.9 		"/>
		<polygon class="st5" points="336.7,439.5 310,439.5 296.6,462.5 310,485.6 336.7,485.6 350,462.5 		"/>
		<polygon class="st5" points="336.7,347 310,347 296.6,370.1 310,393.2 336.7,393.2 350,370.1 		"/>
		<polygon class="st5" points="336.7,300.9 310,300.9 296.6,324 310,347 336.7,347 350,324 		"/>
		<polygon class="st5" points="296.8,416.4 270.1,416.4 256.7,439.5 270.1,462.5 296.8,462.5 310.1,439.5 		"/>
		<polygon class="st5" points="296.8,370.1 270.1,370.1 256.7,393.2 270.1,416.4 296.8,416.4 310.1,393.2 		"/>
		<polygon class="st5" points="296.8,324 270.1,324 256.7,347 270.1,370.1 296.8,370.1 310.1,347 		"/>
		<polygon class="st5" points="296.8,277.8 270.1,277.8 256.7,300.9 270.1,324 296.8,324 310.1,300.9 		"/>
	</g>
</g>
<g id="Saskatchewan">
	<polygon class="st6" points="256.8,439.5 230.1,439.5 216.7,462.5 230.1,485.6 256.8,485.6 270.1,462.5 	"/>
	<polygon class="st6" points="256.8,393.2 230.1,393.2 216.7,416.4 230.1,439.5 256.8,439.5 270.1,416.4 	"/>
	<polygon class="st6" points="256.8,347 230.1,347 216.7,370.1 230.1,393.2 256.8,393.2 270.1,370.1 	"/>
	<polygon class="st6" points="256.8,300.9 230.1,300.9 216.7,324 230.1,347 256.8,347 270.1,324 	"/>
	<polygon class="st6" points="216.8,416.4 190.1,416.4 176.7,439.5 190.1,462.5 216.8,462.5 230.1,439.5 	"/>
	<polygon class="st6" points="216.8,370.1 190.1,370.1 176.7,393.2 190.1,416.4 216.8,416.4 230.1,393.2 	"/>
	<polygon class="st6" points="216.8,324 190.1,324 176.7,347 190.1,370.1 216.8,370.1 230.1,347 	"/>
	<polygon class="st6" points="216.8,277.8 190.1,277.8 176.7,300.9 190.1,324 216.8,324 230.1,300.9 	"/>
</g>
<g id="Nunavut">
	<polygon class="st7" points="376.7,139.1 350,139.1 336.6,162.2 350,185.3 376.7,185.3 390,162.2 	"/>
	<polygon class="st7" points="296.8,139.1 270.1,139.1 256.7,162.2 270.1,185.3 296.8,185.3 310.1,162.2 	"/>
	<polygon class="st7" points="216.8,139.1 190.1,139.1 176.7,162.2 190.1,185.3 216.8,185.3 230.1,162.2 	"/>
	<g>
		<polygon class="st7" points="456.6,46.7 429.9,46.7 416.5,69.8 429.9,92.9 456.6,92.9 469.9,69.8 		"/>
		<polygon class="st7" points="416.7,162.2 390,162.2 376.6,185.3 390,208.4 416.7,208.4 430,185.3 		"/>
		<polygon class="st7" points="416.7,116 390,116 376.6,139.1 390,162.2 416.7,162.2 430,139.1 		"/>
		<polygon class="st7" points="416.7,69.8 390,69.8 376.6,92.9 390,116 416.7,116 430,92.9 		"/>
		<polygon class="st7" points="416.7,23.6 390,23.6 376.6,46.7 390,69.8 416.7,69.8 430,46.7 		"/>
		<polygon class="st7" points="376.7,231.6 350,231.6 336.6,254.6 350,277.8 376.7,277.8 390,254.6 		"/>
		<polygon class="st7" points="376.7,185.3 350,185.3 336.6,208.4 350,231.6 376.7,231.6 390,208.4 		"/>
		<polygon class="st7" points="376.7,92.9 350,92.9 336.6,116 350,139.1 376.7,139.1 390,116 		"/>
		<polygon class="st7" points="376.7,46.7 350,46.7 336.6,69.8 350,92.9 376.7,92.9 390,69.8 		"/>
		<polygon class="st7" points="376.7,0.5 350,0.5 336.6,23.6 350,46.7 376.7,46.7 390,23.6 		"/>
		<polygon class="st7" points="336.7,254.6 310,254.6 296.6,277.8 310,300.9 336.7,300.9 350,277.8 		"/>
		<polygon class="st7" points="336.7,208.4 310,208.4 296.6,231.6 310,254.6 336.7,254.6 350,231.6 		"/>
		<polygon class="st7" points="336.7,162.2 310,162.2 296.6,185.3 310,208.4 336.7,208.4 350,185.3 		"/>
		<polygon class="st7" points="336.7,116 310,116 296.6,139.1 310,162.2 336.7,162.2 350,139.1 		"/>
		<polygon class="st7" points="336.7,69.8 310,69.8 296.6,92.9 310,116 336.7,116 350,92.9 		"/>
		<polygon class="st7" points="336.7,23.6 310,23.6 296.6,46.7 310,69.8 336.7,69.8 350,46.7 		"/>
		<polygon class="st7" points="296.8,231.6 270.1,231.6 256.7,254.6 270.1,277.8 296.8,277.8 310.1,254.6 		"/>
		<polygon class="st7" points="296.8,185.3 270.1,185.3 256.7,208.4 270.1,231.6 296.8,231.6 310.1,208.4 		"/>
		<polygon class="st7" points="296.8,92.9 270.1,92.9 256.7,116 270.1,139.1 296.8,139.1 310.1,116 		"/>
		<polygon class="st7" points="296.8,46.7 270.1,46.7 256.7,69.8 270.1,92.9 296.8,92.9 310.1,69.8 		"/>
		<polygon class="st7" points="296.8,0.5 270.1,0.5 256.7,23.6 270.1,46.7 296.8,46.7 310.1,23.6 		"/>
		<polygon class="st7" points="256.8,162.2 230.1,162.2 216.7,185.3 230.1,208.4 256.8,208.4 270.1,185.3 		"/>
		<polygon class="st7" points="256.8,116 230.1,116 216.7,139.1 230.1,162.2 256.8,162.2 270.1,139.1 		"/>
		<polygon class="st7" points="256.8,69.8 230.1,69.8 216.7,92.9 230.1,116 256.8,116 270.1,92.9 		"/>
		<polygon class="st7" points="256.8,23.6 230.1,23.6 216.7,46.7 230.1,69.8 256.8,69.8 270.1,46.7 		"/>
		<polygon class="st7" points="216.8,92.9 190.1,92.9 176.7,116 190.1,139.1 216.8,139.1 230.1,116 		"/>
		<polygon class="st7" points="216.8,46.7 190.1,46.7 176.7,69.8 190.1,92.9 216.8,92.9 230.1,69.8 		"/>
		<polygon class="st7" points="216.8,0.5 190.1,0.5 176.7,23.6 190.1,46.7 216.8,46.7 230.1,23.6 		"/>
		<polygon class="st7" points="176.9,116 150.2,116 136.8,139.1 150.2,162.2 176.9,162.2 190.2,139.1 		"/>
		<polygon class="st7" points="176.9,69.8 150.2,69.8 136.8,92.9 150.2,116 176.9,116 190.2,92.9 		"/>
		<polygon class="st7" points="176.9,23.6 150.2,23.6 136.8,46.7 150.2,69.8 176.9,69.8 190.2,46.7 		"/>
	</g>
</g>
<g id="Alberta">
	<polygon class="st8" points="176.9,393.2 150.2,393.2 136.8,416.4 150.2,439.5 176.9,439.5 190.2,416.4 	"/>
	<polygon class="st8" points="176.9,347 150.2,347 136.8,370.1 150.2,393.2 176.9,393.2 190.2,370.1 	"/>
	<polygon class="st8" points="176.9,300.9 150.2,300.9 136.8,324 150.2,347 176.9,347 190.2,324 	"/>
	<polygon class="st8" points="136.9,370.1 110.2,370.1 96.8,393.2 110.2,416.4 136.9,416.4 150.2,393.2 	"/>
	<polygon class="st8" points="136.9,324 110.2,324 96.8,347 110.2,370.1 136.9,370.1 150.2,347 	"/>
	<polygon class="st8" points="136.9,277.8 110.2,277.8 96.8,300.9 110.2,324 136.9,324 150.2,300.9 	"/>
</g>
<g id="Northwest_Territories">
	<polygon class="st9" points="176.9,208.4 150.2,208.4 136.8,231.6 150.2,254.6 176.9,254.6 190.2,231.6 	"/>
	<g>
		<polygon class="st9" points="256.8,254.6 230.1,254.6 216.7,277.8 230.1,300.9 256.8,300.9 270.1,277.8 		"/>
		<polygon class="st9" points="256.8,208.4 230.1,208.4 216.7,231.6 230.1,254.6 256.8,254.6 270.1,231.6 		"/>
		<polygon class="st9" points="216.8,231.6 190.1,231.6 176.7,254.6 190.1,277.8 216.8,277.8 230.1,254.6 		"/>
		<polygon class="st9" points="216.8,185.3 190.1,185.3 176.7,208.4 190.1,231.6 216.8,231.6 230.1,208.4 		"/>
		<polygon class="st9" points="176.9,254.6 150.2,254.6 136.8,277.8 150.2,300.9 176.9,300.9 190.2,277.8 		"/>
		<polygon class="st9" points="176.9,162.2 150.2,162.2 136.8,185.3 150.2,208.4 176.9,208.4 190.2,185.3 		"/>
		<polygon class="st9" points="136.9,231.6 110.2,231.6 96.8,254.6 110.2,277.8 136.9,277.8 150.2,254.6 		"/>
		<polygon class="st9" points="136.9,185.3 110.2,185.3 96.8,208.4 110.2,231.6 136.9,231.6 150.2,208.4 		"/>
		<polygon class="st9" points="136.9,139.1 110.2,139.1 96.8,162.2 110.2,185.3 136.9,185.3 150.2,162.2 		"/>
		<polygon class="st9" points="136.9,92.9 110.2,92.9 96.8,116 110.2,139.1 136.9,139.1 150.2,116 		"/>
		<polygon class="st9" points="136.9,46.7 110.2,46.7 96.8,69.8 110.2,92.9 136.9,92.9 150.2,69.8 		"/>
		<polygon class="st9" points="97,162.2 70.3,162.2 56.9,185.3 70.3,208.4 97,208.4 110.3,185.3 		"/>
		<polygon class="st9" points="97,116 70.3,116 56.9,139.1 70.3,162.2 97,162.2 110.3,139.1 		"/>
	</g>
</g>
<g id="British_Columbia_1_">
	<polygon class="st10" points="97,254.6 70.3,254.6 56.9,277.8 70.3,300.9 97,300.9 110.3,277.8 	"/>
	<g id="British_Columbia">
		<polygon class="st10" points="136.9,416.4 110.2,416.4 96.8,439.5 110.2,462.5 136.9,462.5 150.2,439.5 		"/>
		<polygon class="st10" points="97,393.2 70.3,393.2 56.9,416.4 70.3,439.5 97,439.5 110.3,416.4 		"/>
		<polygon class="st10" points="97,347 70.3,347 56.9,370.1 70.3,393.2 97,393.2 110.3,370.1 		"/>
		<polygon class="st10" points="97,300.9 70.3,300.9 56.9,324 70.3,347 97,347 110.3,324 		"/>
		<polygon class="st10" points="57,370.1 30.3,370.1 16.9,393.2 30.3,416.4 57,416.4 70.3,393.2 		"/>
		<polygon class="st10" points="57,324 30.3,324 16.9,347 30.3,370.1 57,370.1 70.3,347 		"/>
		<polygon class="st10" points="57,277.8 30.3,277.8 16.9,300.9 30.3,324 57,324 70.3,300.9 		"/>
		<polygon class="st10" points="57,231.6 30.3,231.6 16.9,254.6 30.3,277.8 57,277.8 70.3,254.6 		"/>
	</g>
</g>
<g id="Yukon">
	<polygon class="st11" points="97,69.8 70.3,69.8 56.9,92.9 70.3,116 97,116 110.3,92.9 	"/>
	<g>
		<polygon class="st11" points="97,208.4 70.3,208.4 56.9,231.6 70.3,254.6 97,254.6 110.3,231.6 		"/>
		<polygon class="st11" points="97,23.6 70.3,23.6 56.9,46.7 70.3,69.8 97,69.8 110.3,46.7 		"/>
		<polygon class="st11" points="57,185.3 30.3,185.3 16.9,208.4 30.3,231.6 57,231.6 70.3,208.4 		"/>
		<polygon class="st11" points="57,139.1 30.3,139.1 16.9,162.2 30.3,185.3 57,185.3 70.3,162.2 		"/>
		<polygon class="st11" points="57,92.9 30.3,92.9 16.9,116 30.3,139.1 57,139.1 70.3,116 		"/>
		<polygon class="st11" points="17,162.2 -9.7,162.2 -23.1,185.3 -9.7,208.4 17,208.4 30.3,185.3 		"/>
		<polygon class="st11" points="17,116 -9.7,116 -23.1,139.1 -9.7,162.2 17,162.2 30.3,139.1 		"/>
	</g>
</g>
</svg>
